<svg xmlns="http://www.w3.org/2000/svg" viewBox="0 0 29 8">
  <path d="M 0 0 H 4 V 1 H 0 V 0 Z M 4 1 H 5 L 5 2 H 4 V 1 Z M 4 2 V 3 H 0 V 2 H 4 Z M 0 3 V 8 H 1 V 3 Z M 1 8 H 7 V 7 H 1 Z M 7 7 V 0 H 8 V 7 H 7 Z M 7 8 H 12 V 7 H 7 Z M 12 7 V 0 H 13 V 7 V 8 H 12 Z M 13 8 H 16 V 7 H 13 Z M 16 7 V 0 H 17 V 7 V 8 H 16 Z M 17 0 H 18 V 1 H 17 Z M 18 1 H 19 V 2 H 18 V 1 Z M 19 2 H 20 V 3 H 19 V 2 Z M 17 8 H 23 V 7 H 17 Z M 23 7 V 0 H 24 V 7 V 8 H 23 Z M 24 7 V 6 H 25 V 7 H 24 Z M 25 6 V 5 H 27 V 6 H 25 Z M 27 5 V 4 H 28 V 5 H 27 Z M 28 4 V 0 H 29 V 8 H 28 V 5 Z" fill="#000000"/>
</svg>